<svg xmlns="http://www.w3.org/2000/svg" viewBox="0 0 512 512"><path d="M 29.699219 236.195312 L 482.296875 236.195312 C 494.078125 236.195312 503.632812 226.644531 503.632812 214.863281 L 503.632812 204.488281 C 503.632812 197.523438 500.230469 190.996094 494.523438 187.003906 L 318.273438 63.757812 C 300.015625 50.988281 278.277344 44.140625 255.996094 44.140625 C 233.71875 44.140625 211.980469 50.988281 193.722656 63.757812 L 17.472656 187.003906 C 11.765625 190.996094 8.363281 197.523438 8.363281 204.488281 L 8.363281 214.863281 C 8.363281 226.644531 17.914062 236.195312 29.699219 236.195312 Z M 29.699219 236.195312 "/><path d="M 125.457031 266.898438 C 125.851562 266.738281 126.246094 266.578125 126.640625 266.414062 L 126.640625 448.957031 L 216.78125 448.957031 L 216.78125 259.632812 L 295.222656 259.632812 L 295.222656 448.957031 L 385.355469 448.957031 L 385.355469 266.238281 C 385.894531 266.464844 386.433594 266.683594 386.976562 266.898438 L 463.789062 266.898438 L 463.789062 272.179688 C 463.9375 272.609375 464.007812 273.058594 464.003906 273.515625 L 464.003906 444.007812 C 464.003906 445.066406 464.421875 446.085938 465.171875 446.835938 C 465.921875 447.585938 466.941406 448.007812 468.003906 448.007812 L 480.003906 448.007812 C 482.164062 448.007812 484.300781 448.445312 486.289062 449.296875 C 488.277344 450.144531 490.070312 451.386719 491.566406 452.953125 C 493.058594 454.511719 494.21875 456.363281 494.976562 458.386719 C 495.738281 460.410156 496.078125 462.566406 495.980469 464.726562 C 495.601562 473.367188 488.140625 480.007812 479.5 480.007812 L 32 480.007812 C 29.839844 480.007812 27.699219 479.566406 25.714844 478.71875 C 23.726562 477.867188 21.933594 476.621094 20.4375 475.0625 C 18.945312 473.496094 17.785156 471.648438 17.023438 469.625 C 16.265625 467.601562 15.925781 465.445312 16.019531 463.285156 C 16.402344 454.644531 23.863281 448.007812 32.5 448.007812 L 44 448.007812 C 45.0625 448.007812 46.078125 447.585938 46.828125 446.835938 C 47.578125 446.085938 48 445.066406 48 444.007812 L 48 273.15625 C 48.003906 272.730469 48.070312 272.308594 48.203125 271.910156 L 48.203125 266.898438 Z M 125.457031 266.898438 "/></svg>